<svg id="visual" viewBox="0 0 900 600" width="900" height="600" xmlns="http://www.w3.org/2000/svg" xmlns:xlink="http://www.w3.org/1999/xlink" version="1.1"><rect x="0" y="0" width="900" height="600" fill="#002233"></rect><path d="M0 114L21.5 120C43 126 86 138 128.8 148C171.7 158 214.3 166 257.2 161C300 156 343 138 385.8 136.8C428.7 135.7 471.3 151.3 514.2 162.3C557 173.3 600 179.7 642.8 176.2C685.7 172.7 728.3 159.3 771.2 148C814 136.7 857 127.3 878.5 122.7L900 118L900 0L878.5 0C857 0 814 0 771.2 0C728.3 0 685.7 0 642.8 0C600 0 557 0 514.2 0C471.3 0 428.7 0 385.8 0C343 0 300 0 257.2 0C214.3 0 171.7 0 128.8 0C86 0 43 0 21.5 0L0 0Z" fill="#0066FF" stroke-linecap="round" stroke-linejoin="miter"></path></svg>